<svg xmlns="http://www.w3.org/2000/svg" viewBox="0 0 420 220" role="img" aria-label="Luton van">
  <defs>
    <linearGradient id="body" x1="0" y1="0" x2="1" y2="1"><stop offset="0" stop-color="#ffffff"/><stop offset="1" stop-color="#e8eef7"/></linearGradient>
    <linearGradient id="blue" x1="0" y1="0" x2="1" y2="0"><stop offset="0" stop-color="#071f4a"/><stop offset="1" stop-color="#1267d6"/></linearGradient>
    <filter id="shadow" x="-20%" y="-20%" width="140%" height="140%"><feDropShadow dx="0" dy="10" stdDeviation="10" flood-color="#071f4a" flood-opacity=".18"/></filter>
  </defs>
  <rect width="420" height="220" fill="#fff" opacity="0"/>
  
  <g filter="url(#shadow)">
    <path d="M44 68h205v94H44z" fill="url(#body)" stroke="#b7c3d4" stroke-width="3"/>
    <path d="M250 84h72c23 0 42 18 48 42l9 36H250z" fill="url(#body)" stroke="#b7c3d4" stroke-width="3"/>
    <path d="M275 98h50c16 8 26 23 31 43h-81V98z" fill="#d9e7f8" stroke="#b7c3d4" stroke-width="3"/>
    <path d="M32 151h360v22H32z" fill="url(#blue)"/>
    <circle cx="110" cy="164" r="24" fill="#071f4a"/><circle cx="110" cy="164" r="11" fill="#cbd5e1"/><circle cx="110" cy="164" r="5" fill="#fff"/><circle cx="326" cy="164" r="24" fill="#071f4a"/><circle cx="326" cy="164" r="11" fill="#cbd5e1"/><circle cx="326" cy="164" r="5" fill="#fff"/>
  </g>
  <path d="M14 106h34M4 136h42M26 168h38" stroke="#18bfd1" stroke-width="10" stroke-linecap="round"/>

</svg>