<svg xmlns="http://www.w3.org/2000/svg" viewBox="0 0 420 220" role="img" aria-label="Medium van">
  <defs>
    <linearGradient id="body" x1="0" y1="0" x2="1" y2="1"><stop offset="0" stop-color="#ffffff"/><stop offset="1" stop-color="#e8eef7"/></linearGradient>
    <linearGradient id="blue" x1="0" y1="0" x2="1" y2="0"><stop offset="0" stop-color="#071f4a"/><stop offset="1" stop-color="#1267d6"/></linearGradient>
    <filter id="shadow" x="-20%" y="-20%" width="140%" height="140%"><feDropShadow dx="0" dy="10" stdDeviation="10" flood-color="#071f4a" flood-opacity=".18"/></filter>
  </defs>
  <rect width="420" height="220" fill="#fff" opacity="0"/>
  
  <g filter="url(#shadow)">
    <path d="M58 63h218c28 0 54 20 62 47l15 52H48V80c0-10 4-17 10-17z" fill="url(#body)" stroke="#b7c3d4" stroke-width="3"/>
    <path d="M276 73h43c20 12 30 31 34 59h-77V73z" fill="#d9e7f8" stroke="#b7c3d4" stroke-width="3"/>
    <rect x="82" y="86" width="150" height="48" rx="4" fill="#f8fbff" stroke="#d3dce9"/>
    <path d="M44 150h322v20H44z" fill="url(#blue)"/>
    <circle cx="120" cy="164" r="24" fill="#071f4a"/><circle cx="120" cy="164" r="11" fill="#cbd5e1"/><circle cx="120" cy="164" r="5" fill="#fff"/><circle cx="308" cy="164" r="24" fill="#071f4a"/><circle cx="308" cy="164" r="11" fill="#cbd5e1"/><circle cx="308" cy="164" r="5" fill="#fff"/>
  </g>
  <path d="M18 112h36M8 140h46M30 168h42" stroke="#18bfd1" stroke-width="10" stroke-linecap="round"/>

</svg>