<svg xmlns="http://www.w3.org/2000/svg" viewBox="0 0 420 220" role="img" aria-label="Small van">
  <defs>
    <linearGradient id="body" x1="0" y1="0" x2="1" y2="1"><stop offset="0" stop-color="#ffffff"/><stop offset="1" stop-color="#e8eef7"/></linearGradient>
    <linearGradient id="blue" x1="0" y1="0" x2="1" y2="0"><stop offset="0" stop-color="#071f4a"/><stop offset="1" stop-color="#1267d6"/></linearGradient>
    <filter id="shadow" x="-20%" y="-20%" width="140%" height="140%"><feDropShadow dx="0" dy="10" stdDeviation="10" flood-color="#071f4a" flood-opacity=".18"/></filter>
  </defs>
  <rect width="420" height="220" fill="#fff" opacity="0"/>
  
  <g filter="url(#shadow)">
    <path d="M82 75h162c26 0 48 17 56 42l14 43H70V92c0-9 5-17 12-17z" fill="url(#body)" stroke="#b7c3d4" stroke-width="3"/>
    <path d="M240 84h39c18 10 27 25 31 48h-70V84z" fill="#d9e7f8" stroke="#b7c3d4" stroke-width="3"/>
    <rect x="96" y="93" width="94" height="42" rx="4" fill="#f8fbff" stroke="#d3dce9"/>
    <path d="M62 150h265v18H62z" fill="url(#blue)"/>
    <circle cx="122" cy="164" r="24" fill="#071f4a"/><circle cx="122" cy="164" r="11" fill="#cbd5e1"/><circle cx="122" cy="164" r="5" fill="#fff"/><circle cx="274" cy="164" r="24" fill="#071f4a"/><circle cx="274" cy="164" r="11" fill="#cbd5e1"/><circle cx="274" cy="164" r="5" fill="#fff"/>
  </g>
  <path d="M24 112h34M10 138h48M36 164h32" stroke="#18bfd1" stroke-width="10" stroke-linecap="round"/>

</svg>